<?xml version="1.0" encoding="UTF-8" standalone="no"?>
<svg
   xmlns:dc="http://purl.org/dc/elements/1.1/"
   xmlns:cc="http://creativecommons.org/ns#"
   xmlns:rdf="http://www.w3.org/1999/02/22-rdf-syntax-ns#"
   xmlns:svg="http://www.w3.org/2000/svg"
   xmlns="http://www.w3.org/2000/svg"
   xmlns:sodipodi="http://sodipodi.sourceforge.net/DTD/sodipodi-0.dtd"
   xmlns:inkscape="http://www.inkscape.org/namespaces/inkscape"
   id="Solid"
   viewBox="0 0 60 60"
   width="60"
   height="60"
   version="1.1"
   sodipodi:docname="loading.svg"
   inkscape:version="0.92.4 (5da689c313, 2019-01-14)">
  <metadata
     id="metadata9">
    <rdf:RDF>
      <cc:Work
         rdf:about="">
        <dc:format>image/svg+xml</dc:format>
        <dc:type
           rdf:resource="http://purl.org/dc/dcmitype/StillImage" />
        <dc:title></dc:title>
      </cc:Work>
    </rdf:RDF>
  </metadata>
  <defs
     id="defs7" />
  <sodipodi:namedview
     pagecolor="#ffffff"
     bordercolor="#666666"
     borderopacity="1"
     objecttolerance="10"
     gridtolerance="10"
     guidetolerance="10"
     inkscape:pageopacity="0"
     inkscape:pageshadow="2"
     inkscape:window-width="1920"
     inkscape:window-height="1043"
     id="namedview5"
     showgrid="false"
     inkscape:zoom="3.6875"
     inkscape:cx="94.21105"
     inkscape:cy="7.3999268"
     inkscape:window-x="1920"
     inkscape:window-y="0"
     inkscape:window-maximized="1"
     inkscape:current-layer="Solid" />
  <path
     d="M 9.1177168,34.32038 A 2.1602344,2.1602344 0 1 1 11.277951,36.480615 2.1602344,2.1602344 0 0 1 9.1177168,34.32038 Z M 24.239358,49.442021 a 2.1602344,2.1602344 0 1 0 -2.160234,-2.160234 2.1602344,2.1602344 0 0 0 2.160234,2.160234 z M 16.04847,44.671503 a 2.1602344,2.1602344 0 1 0 -2.160236,-2.160234 2.1602344,2.1602344 0 0 0 2.160236,2.160234 z m 10.351122,2.610284 a 2.1602344,2.1602344 0 1 0 -2.160234,2.160234 2.1602344,2.1602344 0 0 0 2.160234,-2.160234 M 16.04847,44.671503 a 2.1602344,2.1602344 0 1 0 -2.160236,-2.160234 2.1602344,2.1602344 0 0 0 2.160236,2.160234 z M 9.1177168,24.239286 A 2.1602344,2.1602344 0 1 0 11.277951,22.079052 2.1602344,2.1602344 0 0 0 9.1177168,24.239286 Z M 22.079124,11.277879 a 2.1602344,2.1602344 0 1 0 2.160234,-2.1602345 2.1602344,2.1602344 0 0 0 -2.160234,2.1602345 z m -8.19089,4.770518 a 2.1602344,2.1602344 0 1 0 2.160236,-2.160234 2.1602344,2.1602344 0 0 0 -2.160236,2.160234 z M 9.1177168,24.239286 A 2.1602344,2.1602344 0 1 0 11.277951,22.079052 2.1602344,2.1602344 0 0 0 9.1177168,24.239286 Z M 26.399592,11.277879 a 2.1602344,2.1602344 0 1 0 -2.160234,2.160235 2.1602344,2.1602344 0 0 0 2.160234,-2.160235 m -12.511358,4.770518 a 2.1602344,2.1602344 0 1 0 2.160236,-2.160234 2.1602344,2.1602344 0 0 0 -2.160236,2.160234 z M 34.446466,13.355125 C 41.58001,15.395916 46.56178,21.944037 46.56178,29.279833 A 16.341543,16.341543 0 0 1 43.131058,39.357327 16.58781,16.58781 0 0 1 40.151735,42.3335 l -0.510266,1.836919 4.445853,0.493973 A 20.73618,20.73618 0 0 0 50.882249,29.279833 20.5504,20.5504 0 0 0 46.525776,16.589986 21.291181,21.291181 0 0 0 35.635225,9.2014435 2.1602344,2.1602344 0 0 0 34.447095,13.355125 Z M 50.14903,48.960469 A 2.1602344,2.1602344 0 0 0 48.240823,46.57521 L 37.801129,45.414984 40.722307,34.898603 a 2.1602344,2.1602344 0 1 0 -4.162772,-1.156446 l -3.60039,12.961407 a 2.1602344,2.1602344 0 0 0 1.842859,2.725316 l 12.961407,1.440156 a 2.2063194,2.2063194 0 0 0 0.241136,0.01332 2.1606845,2.1606845 0 0 0 2.144483,-1.921887 z"
     id="path2"
     inkscape:connector-curvature="0"
     style="stroke-width:0.09000976" />
</svg>
