<?xml version="1.0" encoding="UTF-8" standalone="no"?>
<svg
   xmlns:dc="http://purl.org/dc/elements/1.1/"
   xmlns:cc="http://creativecommons.org/ns#"
   xmlns:rdf="http://www.w3.org/1999/02/22-rdf-syntax-ns#"
   xmlns:svg="http://www.w3.org/2000/svg"
   xmlns="http://www.w3.org/2000/svg"
   xmlns:sodipodi="http://sodipodi.sourceforge.net/DTD/sodipodi-0.dtd"
   xmlns:inkscape="http://www.inkscape.org/namespaces/inkscape"
   id="Layer_1"
   enable-background="new 0 0 512.418 512.418"
   height="60"
   viewBox="0 0 60.048984 60.048984"
   width="60"
   version="1.1"
   sodipodi:docname="webapp.svg"
   inkscape:version="0.92.4 (5da689c313, 2019-01-14)">
  <metadata
     id="metadata9">
    <rdf:RDF>
      <cc:Work
         rdf:about="">
        <dc:format>image/svg+xml</dc:format>
        <dc:type
           rdf:resource="http://purl.org/dc/dcmitype/StillImage" />
        <dc:title />
      </cc:Work>
    </rdf:RDF>
  </metadata>
  <defs
     id="defs7" />
  <sodipodi:namedview
     pagecolor="#ffffff"
     bordercolor="#666666"
     borderopacity="1"
     objecttolerance="10"
     gridtolerance="10"
     guidetolerance="10"
     inkscape:pageopacity="0"
     inkscape:pageshadow="2"
     inkscape:window-width="1920"
     inkscape:window-height="1043"
     id="namedview5"
     showgrid="false"
     inkscape:zoom="5.2149125"
     inkscape:cx="-33.120274"
     inkscape:cy="39.585825"
     inkscape:window-x="1920"
     inkscape:window-y="0"
     inkscape:window-maximized="1"
     inkscape:current-layer="g4662" />
  <g
     id="g4694"
     transform="matrix(0.11700736,0,0,0.11700736,30.000986,71.451937)">
    <g
       id="g4662">
      <path
         d="m 111.76181,-465.61943 c -61.654519,-61.65575 -161.457222,-61.66561 -223.1216,0 -61.65635,61.65574 -61.6656,161.45722 0,223.1222 61.65452,61.65575 161.457223,61.66497 223.1216,0 61.65636,-61.65574 61.66498,-161.45722 0,-223.1222 z m -6.59415,200.63216 c -7.371439,-6.59168 -15.256566,-12.42514 -23.567913,-17.45236 5.493472,-18.97616 8.748044,-39.858 9.517343,-61.56459 h 46.38501 c -2.09724,29.25849 -13.33918,56.70491 -32.33444,79.01695 z m -242.26836,-79.01695 h 46.385018 c 0.76929,21.70659 4.02386,42.58843 9.51733,61.56459 -8.31134,5.02722 -16.19647,10.86068 -23.567908,17.45236 -18.99526,-22.31204 -30.23659,-49.75846 -32.33444,-79.01695 z m 32.33506,-99.12519 c 7.371438,6.59168 15.256558,12.42515 23.567898,17.45236 -5.49346,18.97617 -8.74803,39.85802 -9.51733,61.5646 H -137.1007 c 2.09785,-29.25788 13.33918,-56.7043 32.33506,-79.01696 z m 94.9128367,19.53051 c -16.3972647,-1.17273 -32.2075517,-5.21137 -46.8648207,-11.87388 8.524462,-21.9511 24.239278,-48.279 46.8648207,-54.80354 z m 0,20.14582 v 39.34125 H -70.598822 c 0.696,-18.3621 3.29769,-35.99431 7.62458,-52.12732 16.656585,7.2815 34.570265,11.62997 53.1214387,12.78607 z m 0,59.44886 v 39.34126 c -18.5511737,1.1561 -36.4648537,5.50455 -53.1214387,12.78607 -4.32689,-16.13303 -6.92858,-33.76524 -7.62458,-52.12733 z m 0,59.48706 v 66.67682 c -22.6243097,-6.52455 -38.3391257,-32.84936 -46.8648207,-54.80294 14.657269,-6.6625 30.467556,-10.70114 46.8648207,-11.87388 z m 20.1076283,0 c 16.397265,1.17274 32.20755,5.21138 46.86482,11.87388 -8.525078,21.95174 -24.239278,48.27839 -46.86482,54.80294 z m 0,-20.1458 v -39.34126 H 71.00085 c -0.696011,18.36209 -3.297695,35.9943 -7.624595,52.12733 -16.656577,-7.28152 -34.570257,-11.62997 -53.12143,-12.78607 z m 0,-59.44887 v -39.34125 c 18.551173,-1.1561 36.464853,-5.50457 53.12143,-12.78607 4.3269,16.13301 6.928584,33.76522 7.624595,52.12732 z m 0,-59.48707 v -66.67681 c 22.625542,6.52455 38.340358,32.85244 46.86482,54.80355 -14.65727,6.66189 -30.467555,10.70053 -46.86482,11.87326 z m 45.159932,-56.63901 c 12.869831,5.63576 24.876756,13.27758 35.640121,22.75921 -5.1233,4.51723 -10.529309,8.61315 -16.174292,12.27608 -5.013053,-12.4122 -11.416868,-24.47456 -19.465829,-35.03529 z m -129.893939,35.03529 c -5.64499,-3.66293 -11.05039,-7.75885 -16.17431,-12.27608 10.76338,-9.48163 22.77031,-17.12345 35.64014,-22.75921 -8.04896,10.56196 -14.45279,22.62432 -19.46583,35.03529 z m 6.2e-4,182.28919 c 5.01242,12.41158 11.41748,24.47456 19.465826,35.03528 -12.869826,-5.63575 -24.876766,-13.27759 -35.640136,-22.75921 5.1233,-4.51721 10.52931,-8.61315 16.17431,-12.27607 z m 149.359148,0 c 5.644983,3.66292 11.050992,7.75886 16.174292,12.27545 -10.763365,9.48163 -22.77029,17.12346 -35.640121,22.75921 8.048344,-10.55949 14.452776,-22.62246 19.465829,-35.03466 z m 16.23712,-101.1984 c -0.769299,-21.70658 -4.023863,-42.58905 -9.517343,-61.5646 8.311348,-5.02722 16.195858,-10.86068 23.567907,-17.45236 18.99526,22.31204 30.23659,49.75846 32.33444,79.01696 z"
         id="path2"
         inkscape:connector-curvature="0"
         style="stroke-width:0.61592925" />
      <g
         id="g72"
         transform="matrix(0.80035315,0,0,0.80035315,-39.324457,-31.322073)" />
      <g
         transform="matrix(0.80100656,0,0,-0.80100656,282.16437,-117.07025)"
         id="g14" />
      <g
         transform="matrix(0.80100656,0,0,-0.80100656,282.16437,-117.07025)"
         id="g16" />
      <g
         transform="matrix(0.80100656,0,0,-0.80100656,282.16437,-117.07025)"
         id="g18" />
      <g
         transform="matrix(0.80100656,0,0,-0.80100656,282.16437,-117.07025)"
         id="g20" />
      <g
         transform="matrix(0.80100656,0,0,-0.80100656,282.16437,-117.07025)"
         id="g22" />
      <g
         transform="matrix(0.80100656,0,0,-0.80100656,282.16437,-117.07025)"
         id="g24" />
      <g
         transform="matrix(0.80100656,0,0,-0.80100656,282.16437,-117.07025)"
         id="g26" />
      <g
         transform="matrix(0.80100656,0,0,-0.80100656,282.16437,-117.07025)"
         id="g28" />
      <g
         transform="matrix(0.80100656,0,0,-0.80100656,282.16437,-117.07025)"
         id="g30" />
      <g
         transform="matrix(0.80100656,0,0,-0.80100656,282.16437,-117.07025)"
         id="g32" />
      <g
         transform="matrix(0.80100656,0,0,-0.80100656,282.16437,-117.07025)"
         id="g34" />
      <g
         transform="matrix(0.80100656,0,0,-0.80100656,282.16437,-117.07025)"
         id="g36" />
      <g
         transform="matrix(0.80100656,0,0,-0.80100656,282.16437,-117.07025)"
         id="g38" />
      <g
         transform="matrix(0.80100656,0,0,-0.80100656,282.16437,-117.07025)"
         id="g40" />
      <g
         transform="matrix(0.80100656,0,0,-0.80100656,282.16437,-117.07025)"
         id="g42" />
    </g>
  </g>
</svg>
